<svg width="196" height="196" viewBox="0 0 196 196" fill="none" xmlns="http://www.w3.org/2000/svg">
<g filter="url(#filter0_d)">
<rect x="27" y="27" width="142" height="142" rx="10" fill="#FF8484"/>
</g>
<path d="M118.341 74.5983H135.489C139.599 74.5983 143 77.8703 143 82.1381V108.029H102.185V77.8703C100.768 77.4435 99.492 76.8745 98.6417 76.0209C98.5 76.0209 98.5 75.8787 98.3583 75.8787C98.3583 75.8787 98.3583 76.0209 98.2166 76.0209C97.2245 76.8745 96.0908 77.4435 94.8153 77.8703V108.029H54V82.1381C54 77.8703 57.2596 74.5983 61.3694 74.5983H78.6592C76.6752 73.6025 74.8328 72.1799 73.2739 70.8996C66.4713 64.3556 65.1959 55.251 70.5812 50.1297C72.8487 48.1381 75.8248 47 79.0844 47C83.7611 47 88.5796 48.8494 92.6895 52.6904C94.957 54.8243 97.0828 57.8117 98.3583 60.6569C99.7755 57.8117 101.901 54.8243 104.169 52.6904C108.137 48.8494 113.239 47 117.774 47C121.175 47 124.151 48.1381 126.277 50.1297C131.662 55.251 130.387 64.3556 123.443 70.8996C122.025 72.1799 120.183 73.6025 118.341 74.5983ZM93.1147 70.4728C93.6815 69.1925 92.2643 62.6485 87.5876 58.2385C85.1783 55.9623 81.9188 54.682 79.0844 54.682C78.2341 54.682 76.8169 54.8243 75.8248 55.6778C75.5414 55.9623 74.6911 56.5314 74.6911 58.0962C74.6911 59.9456 75.8248 62.7908 78.5175 65.2092C81.9188 68.4812 87.3041 70.7573 91.2723 70.7573C92.5478 70.7573 93.1147 70.4728 93.1147 70.4728ZM103.885 70.4728C103.885 70.4728 104.594 70.7573 105.728 70.7573C109.696 70.7573 115.081 68.4812 118.482 65.2092C121.175 62.7908 122.025 59.9456 122.025 58.0962C122.025 56.5314 121.317 55.9623 121.175 55.6778C120.183 54.8243 118.624 54.682 117.774 54.682C115.081 54.682 111.68 55.9623 109.271 58.2385C104.736 62.6485 103.177 69.0502 103.885 70.6151V70.4728ZM94.8153 149H61.3694C57.2596 149 54 145.728 54 141.603V115.569H94.8153V149ZM135.489 149H102.185V115.569H143V141.603C143 145.728 139.599 149 135.489 149Z" fill="white"/>
<defs>
<filter id="filter0_d" x="0" y="0" width="196" height="196" filterUnits="userSpaceOnUse" color-interpolation-filters="sRGB">
<feFlood flood-opacity="0" result="BackgroundImageFix"/>
<feColorMatrix in="SourceAlpha" type="matrix" values="0 0 0 0 0 0 0 0 0 0 0 0 0 0 0 0 0 0 127 0" result="hardAlpha"/>
<feOffset/>
<feGaussianBlur stdDeviation="13.5"/>
<feComposite in2="hardAlpha" operator="out"/>
<feColorMatrix type="matrix" values="0 0 0 0 1 0 0 0 0 0.517647 0 0 0 0 0.517647 0 0 0 1 0"/>
<feBlend mode="normal" in2="BackgroundImageFix" result="effect1_dropShadow"/>
<feBlend mode="normal" in="SourceGraphic" in2="effect1_dropShadow" result="shape"/>
</filter>
</defs>
</svg>
